<?xml version="1.0" encoding="UTF-8"?>
<svg version="1.1" xmlns="http://www.w3.org/2000/svg" width="180" height="180">
<path d="M0 0 C59.4 0 118.8 0 180 0 C180 59.4 180 118.8 180 180 C120.6 180 61.2 180 0 180 C0 120.6 0 61.2 0 0 Z " fill="#020303" transform="translate(0,0)"/>
<path d="M0 0 C13.73625 -0.12375 13.73625 -0.12375 27.75 -0.25 C30.61655273 -0.28641602 33.48310547 -0.32283203 36.43652344 -0.36035156 C38.74413304 -0.37204927 41.05175099 -0.38223852 43.359375 -0.390625 C44.52871582 -0.41108887 45.69805664 -0.43155273 46.90283203 -0.45263672 C58.17743927 -0.45735215 68.71174089 1.95278646 77 10 C84.78849 18.55137171 86.66582279 26.7206727 86.27734375 38.0234375 C85.41603381 50.37292374 80.59771302 57.44679436 72 66 C72.42821045 66.79583496 72.8564209 67.59166992 73.29760742 68.41162109 C74.91091258 71.41164973 76.52289451 74.41238192 78.1340332 77.41357422 C78.82687722 78.70356469 79.52022244 79.99328611 80.21411133 81.28271484 C81.22093873 83.15388721 82.22585888 85.02607382 83.23046875 86.8984375 C83.83270264 88.01911621 84.43493652 89.13979492 85.05541992 90.29443359 C87.4352681 94.82944121 89.70958644 99.41917287 92 104 C80.12 104 68.24 104 56 104 C50.25 93.4375 50.25 93.4375 48.46191406 90.15014648 C47.98463867 89.27430908 47.50736328 88.39847168 47.015625 87.49609375 C46.50064453 86.5510498 45.98566406 85.60600586 45.45507812 84.63232422 C44.2049233 82.37071864 42.91909849 80.13749466 41.609375 77.91015625 C40 75 40 75 40 73 C37.36 73 34.72 73 32 73 C32 83.23 32 93.46 32 104 C21.44 104 10.88 104 0 104 C0 69.68 0 35.36 0 0 Z " fill="#060707" transform="translate(47,38)"/>
<path d="M0 0 C13.73625 -0.12375 13.73625 -0.12375 27.75 -0.25 C30.61655273 -0.28641602 33.48310547 -0.32283203 36.43652344 -0.36035156 C38.74413304 -0.37204927 41.05175099 -0.38223852 43.359375 -0.390625 C44.52871582 -0.41108887 45.69805664 -0.43155273 46.90283203 -0.45263672 C58.17743927 -0.45735215 68.71174089 1.95278646 77 10 C84.78849 18.55137171 86.66582279 26.7206727 86.27734375 38.0234375 C85.41603381 50.37292374 80.59771302 57.44679436 72 66 C72.42821045 66.79583496 72.8564209 67.59166992 73.29760742 68.41162109 C74.91091258 71.41164973 76.52289451 74.41238192 78.1340332 77.41357422 C78.82687722 78.70356469 79.52022244 79.99328611 80.21411133 81.28271484 C81.22093873 83.15388721 82.22585888 85.02607382 83.23046875 86.8984375 C83.83270264 88.01911621 84.43493652 89.13979492 85.05541992 90.29443359 C87.4352681 94.82944121 89.70958644 99.41917287 92 104 C80.12 104 68.24 104 56 104 C50.25 93.4375 50.25 93.4375 48.46191406 90.15014648 C47.98463867 89.27430908 47.50736328 88.39847168 47.015625 87.49609375 C46.50064453 86.5510498 45.98566406 85.60600586 45.45507812 84.63232422 C44.2049233 82.37071864 42.91909849 80.13749466 41.609375 77.91015625 C40 75 40 75 40 73 C37.36 73 34.72 73 32 73 C32 83.23 32 93.46 32 104 C21.44 104 10.88 104 0 104 C0 69.68 0 35.36 0 0 Z M7 7 C7 36.7 7 66.4 7 97 C12.94 97 18.88 97 25 97 C25 86.77 25 76.54 25 66 C31.6 66 38.2 66 45 66 C45.66 67.98 46.32 69.96 47 72 C47.95758325 73.95561371 48.9612742 75.88915653 50.00390625 77.80078125 C50.57947266 78.85974609 51.15503906 79.91871094 51.74804688 81.00976562 C52.34681641 82.09966797 52.94558594 83.18957031 53.5625 84.3125 C54.46645508 85.97635742 54.46645508 85.97635742 55.38867188 87.67382812 C57.78412137 92.62489347 57.78412137 92.62489347 61 97 C62.34267413 97.08631874 63.68974322 97.10706473 65.03515625 97.09765625 C65.84404297 97.09443359 66.65292969 97.09121094 67.48632812 97.08789062 C68.7615332 97.07532227 68.7615332 97.07532227 70.0625 97.0625 C70.91650391 97.05798828 71.77050781 97.05347656 72.65039062 97.04882812 C74.76695663 97.03700373 76.88348685 97.01906769 79 97 C77.66945496 92.64389887 75.96602979 88.82280047 73.77734375 84.83203125 C73.15666016 83.69185547 72.53597656 82.55167969 71.89648438 81.37695312 C71.24382452 80.18861807 70.5908262 79.00046885 69.9375 77.8125 C68.65184782 75.46650959 67.37020861 73.1184212 66.08984375 70.76953125 C65.52128662 69.73417236 64.95272949 68.69881348 64.36694336 67.63208008 C63 65 63 65 62 62 C62.51949219 61.70867187 63.03898437 61.41734375 63.57421875 61.1171875 C70.50500474 57.04326893 74.89158754 52.58766973 78 45 C78.44547893 41.86516154 78.46484648 38.78724721 78.4375 35.625 C78.45748047 34.81289062 78.47746094 34.00078125 78.49804688 33.1640625 C78.4924909 26.23020519 76.57456054 21.25330832 72.28125 15.828125 C59.97538281 4.92555846 45.18343866 6.51027786 29.75 6.75 C22.2425 6.8325 14.735 6.915 7 7 Z " fill="#F9F9F8" transform="translate(47,38)"/>
<path d="M0 0 C6.001875 -0.0928125 6.001875 -0.0928125 12.125 -0.1875 C13.37555176 -0.21481201 14.62610352 -0.24212402 15.91455078 -0.27026367 C26.24820023 -0.34767864 26.24820023 -0.34767864 31 3 C35.44581921 7.92644832 36.35086982 10.9513878 36.28515625 17.45703125 C35.76426744 22.10221772 33.34110787 24.82145066 29.9375 27.8125 C26.33058892 30.02318744 23.36954381 30.11862713 19.23828125 30.09765625 C17.72681519 30.09390991 17.72681519 30.09390991 16.18481445 30.09008789 C14.2680188 30.07643188 14.2680188 30.07643188 12.3125 30.0625 C6.2178125 30.0315625 6.2178125 30.0315625 0 30 C0 20.1 0 10.2 0 0 Z " fill="#F9F9F8" transform="translate(72,60)"/>
<path d="M0 0 C2.75059381 -0.08107646 5.49879021 -0.14052813 8.25 -0.1875 C9.02730469 -0.21263672 9.80460937 -0.23777344 10.60546875 -0.26367188 C14.03796609 -0.30767825 16.40013907 -0.29295534 19.51953125 1.23046875 C21.38242935 3.45709893 21.50946687 4.62132507 21.4375 7.5 C21.43621094 8.2734375 21.43492188 9.046875 21.43359375 9.84375 C20.90524205 12.47122872 20.06556073 13.3435112 18 15 C14.81453711 16.59273144 11.36800652 16.10141833 7.875 16.0625 C5.27625 16.041875 2.6775 16.02125 0 16 C0 10.72 0 5.44 0 0 Z " fill="#0D0D0D" transform="translate(79,67)"/>
<path d="M0 0 C4.29 0 8.58 0 13 0 C12.67 1.65 12.34 3.3 12 5 C7.71 5 3.42 5 -1 5 C-0.67 3.35 -0.34 1.7 0 0 Z " fill="#787978" transform="translate(161,170)"/>
<path d="M0 0 C2.64 0 5.28 0 8 0 C8 1.65 8 3.3 8 5 C5.36 5 2.72 5 0 5 C0 3.35 0 1.7 0 0 Z " fill="#7E7F7E" transform="translate(151,170)"/>
<path d="M0 0 C1.65 0 3.3 0 5 0 C5.33 1.32 5.66 2.64 6 4 C3.50935112 4.68707555 1.62113708 5 -1 5 C-0.67 3.35 -0.34 1.7 0 0 Z " fill="#6E6E6E" transform="translate(161,170)"/>
</svg>
